# AST/ASF file generated using VICON BodyLanguage
# -----------------------------------------------
:version 1.10
:name VICON
:units
  mass 1.0
  length 0.45
  angle deg
:documentation
   .ast/.asf automatically generated from VICON data using
   VICON BodyBuilder and BodyLanguage model FoxedUp or BRILLIANT.MOD
:root
   order TX TY TZ RX RY RZ
   axis XYZ
   position 0 0 0  
   orientation 0 0 0 
:bonedata
  begin
     id 1 
     name lhipjoint
     direction 0.541323 -0.757556 0.364798 
     length 2.47576 
     axis 0 0 0  XYZ
  end
  begin
     id 2 
     name lfemur
     direction 0.34202 -0.939693 0  
     length 7.46493  
     axis 0 0 20  XYZ
    dof rx ry rz
    limits (-160.0 20.0)
           (-70.0 70.0)
           (-60.0 70.0)
  end
  begin
     id 3 
     name ltibia
     direction 0.34202 -0.939693 0   
     length 7.73805   
     axis 0 0 20   XYZ
    dof rx
    limits (-10.0 170.0)
  end
  begin
     id 4 
     name lfoot
     direction 0.107174 -0.294458 0.949636   
     length 2.25864   
     axis -90 7.62852e-016 20   XYZ
    dof rx rz
    limits (-45.0 90.0)
           (-70.0 20.0)
  end
  begin
     id 5 
     name ltoes
     direction 1.53606e-011 -4.21934e-011 1   
     length 1.12451   
     axis -90 7.62852e-016 20   XYZ
    dof rx
    limits (-90.0 20.0)
  end
  begin
     id 6 
     name rhipjoint
     direction -0.524745 -0.766967 0.36933   
     length 2.44538  
     axis 0 0 0  XYZ 
  end
  begin
     id 7 
     name rfemur
     direction -0.34202 -0.939693 0   
     length 7.61604   
     axis 0 0 -20   XYZ
    dof rx ry rz
    limits (-160.0 20.0)
           (-70.0 70.0)
           (-70.0 60.0)
  end
  begin
     id 8 
     name rtibia
     direction -0.34202 -0.939693 0   
     length 7.61056   
     axis 0 0 -20   XYZ
    dof rx
    limits (-10.0 170.0)
 end
 begin
     id 9 
     name rfoot
     direction -0.12616 -0.346623 0.929482   
     length 2.46372  
     axis -90 -7.62852e-016 -20   XYZ
    dof rx rz
    limits (-45.0 90.0)
           (-20.0 70.0)
  end
  begin
     id 10 
     name rtoes
     direction -1.53531e-011 -4.22004e-011 1   
     length 1.21611   
     axis -90 -7.62852e-016 -20   XYZ
    dof rx
    limits (-90.0 20.0)
  end
  begin
     id 11 
     name lowerback
     direction -0.000778023 0.997293 -0.0735223   
     length 2.06139   
     axis 0 0 0   XYZ
    dof rx ry rz
    limits (-20.0 45.0)
           (-30.0 30.0)
           (-30.0 30.0)
  end
  begin
     id 12 
     name upperback
     direction 0.0222598 0.999722 -0.0078355   
     length 2.06383   
     axis 0 0 0   XYZ
    dof rx ry rz
    limits (-20.0 45.0)
           (-30.0 30.0)
           (-30.0 30.0)
  end
  begin
     id 13 
     name thorax
     direction 0.0219654 0.999405 0.0265994   
     length 2.07163   
     axis 0 0 0   XYZ
    dof rx ry rz
    limits (-20.0 45.0)
           (-30.0 30.0)
           (-30.0 30.0)
  end
  begin
     id 14 
     name lowerneck
     direction 0.0213282 0.988147 0.15202   
     length 1.75969   
     axis 0 0 0   XYZ
    dof rx ry rz
    limits (-20.0 45.0)
           (-30.0 30.0)
           (-30.0 30.0)
  end
  begin
     id 15 
     name upperneck
     direction -0.0546456 0.982624 -0.177379   
     length 1.79244   
     axis 0 0 0   XYZ
    dof rx ry rz
    limits (-20.0 45.0)
           (-30.0 30.0)
           (-30.0 30.0)
  end
  begin
     id 16
     name head
     direction -0.0199987 0.996855 -0.076686  
     length 1.80555  
     axis 0 0 0   XYZ
    dof rx ry rz
    limits (-20.0 45.0)
           (-30.0 30.0)
           (-30.0 30.0)
  end
  begin
     id 17 
     name lclavicle
     direction 0.929565 0.363219 -0.063096  
     length 3.55722  
     axis 0 0 0   XYZ
    dof ry rz
    limits (-20.0 10.0)
           (0.0 20.0)
  end
  begin
     id 18 
     name lhumerus
     direction 1 -4.48993e-011 -2.36203e-027   
     length 4.92785   
     axis 180 -30 -90   XYZ
    dof rx ry rz
    limits (-60.0 90.0)
           (-90.0 90.0)
           (-90.0 90.0)
  end
  begin
     id 19
     name lradius
     direction 1 -4.48947e-011 2.02997e-027   
     length 3.44052   
     axis 180 -30 -90   XYZ
    dof rx
    limits (-10.0 170.0)
  end
  begin
     id 20
     name lwrist
     direction 1 -4.48962e-011 1.45991e-027   
     length 1.72026   
     axis 1.49639e-024 90 90   XYZ
    dof ry
    limits (-180.0 0.0)
 end
  begin
     id 21 
     name lhand
     direction 1 -4.48984e-011 2.91906e-027   
     length 0.654326   
     axis -1.863e-015 90 90   XYZ
    dof rx rz
    limits (-90.0 90.0)
           (-45.0 45.0)
  end
  begin
     id 22 
     name lfingers
     direction 1 -4.48961e-011 5.83968e-027   
     length 0.527534   
     axis -3.72598e-015 90 90   XYZ
    dof rx
    limits (0.0 90.0)
  end
  begin
     id 23
     name lthumb
     direction 0.707107 -6.34963e-011 0.707107   
     length 0.757437   
     axis -90 45 -6.68868e-015   XYZ
    dof rx rz
    limits (-45.0 45.0)
           (-45.0 45.0)
  end
  begin
     id 24 
     name rclavicle
     direction -0.902944 0.422599 -0.0781198   
     length 3.54432  
     axis 0 0 0   XYZ 
    dof ry rz
    limits (-10.0 20.0)
           (-20.0 0.0)
  end
  begin
     id 25 
     name rhumerus
     direction -1 -4.48953e-011 -4.75835e-028  
     length 5.09181   
     axis 180 30 90   XYZ
    dof rx ry rz
    limits (-90.0 60.0)
           (-90.0 90.0)
           (-90.0 90.0)
  end
  begin
     id 26 
     name rradius
     direction -1 -4.48986e-011 -3.25889e-027   
     length 3.49865   
     axis 180 30 90   XYZ
    dof rx
    limits (-10.0 170.0)
  end
  begin
     id 27 
     name rwrist
     direction -1 -4.48963e-011 1.45989e-027   
     length 1.74933   
     axis 1.49639e-024 -90 -90   XYZ
    dof ry
    limits (-180.0 0.0)
  end
  begin
     id 28
     name rhand
     direction -1 -4.49003e-011 2.91844e-027   
     length 0.66641   
     axis -1.863e-015 -90 -90   XYZ
    dof rx rz
    limits (-90.0 90.0)
           (-45.0 45.0)
  end
  begin
     id 29
     name rfingers
     direction -1 -4.48973e-011 5.83886e-027   
     length 0.537277   
     axis -3.72598e-015 -90 -90   XYZ
    dof rx
    limits (0.0 90.0)
  end
  begin
     id 30
     name rthumb
     direction -0.707107 -6.34976e-011 0.707107   
     length 0.771425   
     axis -90 -45 6.68868e-015   XYZ
    dof rx rz
    limits (-45.0 45.0)
           (-45.0 45.0)
  end
:hierarchy
  begin
    root lhipjoint rhipjoint lowerback
    lhipjoint lfemur
    lfemur ltibia
    ltibia lfoot
    lfoot ltoes
    rhipjoint rfemur
    rfemur rtibia
    rtibia rfoot
    rfoot rtoes
    lowerback upperback
    upperback thorax
    thorax lowerneck lclavicle rclavicle
    lowerneck upperneck
    upperneck head
    lclavicle lhumerus
    lhumerus lradius
    lradius lwrist
    lwrist lhand lthumb
    lhand lfingers
    rclavicle rhumerus
    rhumerus rradius
    rradius rwrist
    rwrist rhand rthumb
    rhand rfingers
  end

#!OML:ASF H:\LiuWeirdWalks\Patient Classification 1\Patient 1\Session 1\male.ASF
:FULLY-SPECIFIED
:DEGREES
130
root -0.426089 17.7522 -29.0133 4.23221 0.964039 -2.66556
lowerback 3.0659 -0.677643 -0.958827
upperback -0.219061 -0.864024 3.95025
thorax -1.87054 -0.403766 4.65721
lowerneck -20.3951 4.96373 6.45426
upperneck 27.3583 7.73851 -8.88995
head 13.2248 2.89906 -3.20874
rclavicle 1.76918e-014 1.27222e-014
rhumerus -37.5097 -11.0045 -69.3383
rradius 28.4282
rwrist -6.10866
rhand -13.8233 -2.5337
rfingers 7.12502
rthumb 12.2995 -32.152
lclavicle 1.76918e-014 1.27222e-014
lhumerus -35.5309 6.57382 79.914
lradius 37.5871
lwrist 11.1195
lhand -12.611 -1.90204
lfingers 7.12502
lthumb 13.4682 27.6425
rfemur -9.6166 -4.87675 25.7409
rtibia 31.0598
rfoot -19.1985 -22.0573
rtoes 0.272551
lfemur -12.6115 0.618114 -13.7415
ltibia 36.3002
lfoot -15.0499 16.2081
ltoes -10.4608
131
root -0.444279 17.746 -28.9977 4.17548 0.96165 -2.87305
lowerback 3.19726 -0.582194 -0.745047
upperback -0.166221 -0.726472 4.03501
thorax -1.90357 -0.336729 4.61964
lowerneck -20.443 4.9865 6.23103
upperneck 27.3725 7.82776 -8.81683
head 13.2356 2.92297 -3.12469
rclavicle -8.49804e-015 1.11319e-014
rhumerus -37.3356 -10.4859 -69.4022
rradius 28.3489
rwrist -6.02924
rhand -13.7319 -2.61555
rfingers 7.12502
rthumb 12.3876 -32.2285
lclavicle -8.49804e-015 1.11319e-014
lhumerus -35.5823 6.87873 79.8299
lradius 37.8422
lwrist 11.2245
lhand -12.6978 -2.07797
lfingers 7.12502
lthumb 13.3845 27.4721
rfemur -9.44465 -4.9966 26.0334
rtibia 30.9251
rfoot -19.1729 -22.0567
rtoes 0.241612
lfemur -13.113 0.65277 -13.4046
ltibia 37.4171
lfoot -14.9133 16.0186
ltoes -10.9523
132
root -0.462593 17.7402 -28.9816 4.11832 0.994708 -3.05103
lowerback 3.33542 -0.408798 -0.534861
upperback -0.0991089 -0.486203 4.03614
thorax -1.9343 -0.218758 4.49118
lowerneck -20.5824 4.84959 5.95196
upperneck 27.4414 7.65739 -8.59865
head 13.2524 2.84333 -3.02157
rclavicle -8.54774e-015 1.98785e-014
rhumerus -37.2276 -10.2628 -69.4687
rradius 28.2994
rwrist -5.8973
rhand -13.6273 -2.66852
rfingers 7.12502
rthumb 12.4885 -32.2754
lclavicle -8.54774e-015 1.98785e-014
lhumerus -35.5139 6.89481 79.7466
lradius 38.0615
lwrist 11.3508
lhand -12.7784 -2.19045
lfingers 7.12502
lthumb 13.3068 27.3647
rfemur -9.2662 -5.11072 26.2979
rtibia 30.7864
rfoot -19.1465 -22.0958
rtoes 0.209991
lfemur -13.6526 0.63964 -13.0903
ltibia 38.5758
lfoot -14.7078 15.7838
ltoes -11.496
133
root -0.48082 17.7351 -28.9652 4.05778 1.05683 -3.1947
lowerback 3.48438 -0.178493 -0.336426
upperback -0.0295525 -0.171103 3.96986
thorax -1.97278 -0.0634558 4.29442
lowerneck -20.7671 4.63007 5.71218
upperneck 27.5605 7.33714 -8.32344
head 13.2854 2.70831 -2.93083
rclavicle -3.47873e-015 0
rhumerus -37.1763 -10.244 -69.551
rradius 28.2815
rwrist -5.72884
rhand -13.5292 -2.69255
rfingers 7.12502
rthumb 12.5831 -32.2936
lclavicle -3.47873e-015 0
lhumerus -35.3773 6.70065 79.6543
lradius 38.2632
lwrist 11.4729
lhand -12.8365 -2.26943
lfingers 7.12502
lthumb 13.2508 27.2894
rfemur -9.08195 -5.22735 26.5261
rtibia 30.6497
rfoot -19.1234 -22.1601
rtoes 0.177966
lfemur -14.2275 0.582125 -12.8047
ltibia 39.7726
lfoot -14.4311 15.4988
ltoes -12.0598
134
root -0.499076 17.7305 -28.9485 3.9925 1.1573 -3.30679
lowerback 3.63438 0.160375 -0.118699
upperback 0.0431046 0.287507 3.77699
thorax -2.01522 0.162796 3.94595
lowerneck -20.9805 4.24296 5.55962
upperneck 27.7255 6.71219 -7.95178
head 13.317 2.462 -2.87333
rclavicle -2.23633e-015 -2.46493e-014
rhumerus -37.2664 -10.6456 -69.6469
rradius 28.3103
rwrist -5.4975
rhand -13.4522 -2.68433
rfingers 7.12502
rthumb 12.6572 -32.2808
lclavicle -2.23633e-015 -2.46493e-014
lhumerus -35.1134 6.07487 79.5416
lradius 38.4391
lwrist 11.6268
lhand -12.8623 -2.34235
lfingers 7.12502
lthumb 13.226 27.2181
rfemur -8.89054 -5.34797 26.7225
rtibia 30.5149
rfoot -19.0986 -22.2568
rtoes 0.144268
lfemur -14.8393 0.461054 -12.5468
ltibia 41.0101
lfoot -14.0855 15.1689
ltoes -12.6367
135
root -0.516876 17.7262 -28.9315 3.93177 1.29083 -3.39896
lowerback 3.76743 0.398481 0.0465701
upperback 0.116387 0.611082 3.68019
thorax -2.03408 0.322117 3.73352
lowerneck -21.1341 4.07634 5.57035
upperneck 27.7916 6.44185 -7.87806
head 13.3496 2.35137 -2.89556
rclavicle -1.88845e-015 3.4191e-014
rhumerus -37.1845 -10.6531 -69.7725
rradius 28.3237
rwrist -5.30381
rhand -13.4212 -2.69389
rfingers 7.12502
rthumb 12.6871 -32.2885
lclavicle -1.88845e-015 3.4191e-014
lhumerus -34.9632 5.84876 79.4322
lradius 38.6392
lwrist 11.7262
lhand -12.8944 -2.43172
lfingers 7.12502
lthumb 13.195 27.1307
rfemur -8.70261 -5.47089 26.8987
rtibia 30.3806
rfoot -19.0734 -22.3813
rtoes 0.111155
lfemur -15.4967 0.272184 -12.3078
ltibia 42.2895
lfoot -13.6859 14.7979
ltoes -13.176
136
root -0.534668 17.722 -28.9144 3.87411 1.45694 -3.49637
lowerback 3.89469 0.634888 0.21973
upperback 0.166271 0.933531 3.58174
thorax -2.07054 0.481079 3.51418
lowerneck -21.2409 3.90241 5.61444
upperneck 27.9006 6.16409 -7.83485
head 13.3924 2.23801 -2.9387
rclavicle 2.43511e-015 -5.56597e-015
rhumerus -37.1291 -10.6289 -69.9188
rradius 28.3602
rwrist -5.14618
rhand -13.4142 -2.68657
rfingers 7.12502
rthumb 12.6939 -32.2808
lclavicle 2.43511e-015 -5.56597e-015
lhumerus -34.857 5.62304 79.3057
lradius 38.827
lwrist 11.811
lhand -12.9071 -2.55037
lfingers 7.12502
lthumb 13.1828 27.0129
rfemur -8.51801 -5.58682 27.0868
rtibia 30.2427
rfoot -19.0418 -22.5407
rtoes 0.0816382
lfemur -16.2042 0.0199605 -12.0577
ltibia 43.6078
lfoot -13.2439 14.3819
ltoes -13.6905
137
root -0.552417 17.7176 -28.8967 3.82026 1.6552 -3.60845
lowerback 4.01501 0.89924 0.431283
upperback 0.215863 1.29438 3.45318
thorax -2.10081 0.658557 3.23894
lowerneck -21.3777 3.72445 5.70114
upperneck 27.9692 5.84762 -7.75509
head 13.421 2.11753 -2.98052
rclavicle 2.72832e-014 1.11319e-014
rhumerus -37.076 -10.7198 -70.0874
rradius 28.41
rwrist -5.02211
rhand -13.4572 -2.74189
rfingers 7.12502
rthumb 12.6525 -32.3387
lclavicle 2.72832e-014 1.11319e-014
lhumerus -34.7021 5.28642 79.1656
lradius 38.9791
lwrist 11.8915
lhand -12.9254 -2.6809
lfingers 7.12502
lthumb 13.1651 26.8835
rfemur -8.33286 -5.68915 27.2978
rtibia 30.0974
rfoot -19.0182 -22.7336
rtoes 0.0886503
lfemur -16.9567 -0.299524 -11.7874
ltibia 44.9539
lfoot -12.7675 13.9326
ltoes -14.1895
138
root -0.569568 17.7127 -28.8778 3.76149 1.88027 -3.73579
lowerback 4.13501 1.03667 0.601424
upperback 0.269551 1.48734 3.46817
thorax -2.11933 0.75317 3.14547
lowerneck -21.5132 3.71665 5.5853
upperneck 27.9732 5.85705 -7.69787
head 13.4458 2.11451 -2.93515
rclavicle -8.44835e-016 -1.51076e-014
rhumerus -36.8066 -10.3106 -70.27
rradius 28.4297
rwrist -4.97822
rhand -13.522 -2.80653
rfingers 7.12502
rthumb 12.59 -32.4072
lclavicle -8.44835e-016 -1.51076e-014
lhumerus -34.6807 5.48484 79.0413
lradius 39.1238
lwrist 11.9094
lhand -12.9437 -2.81875
lfingers 7.12502
lthumb 13.1475 26.7467
rfemur -8.13518 -5.79161 27.5266
rtibia 29.9416
rfoot -19.0023 -22.945
rtoes 0.11369
lfemur -17.7396 -0.672044 -11.4987
ltibia 46.3118
lfoot -12.2645 13.455
ltoes -14.6845
139
root -0.58627 17.7076 -28.8576 3.6971 2.12688 -3.87857
lowerback 4.25588 1.16982 0.789679
upperback 0.322809 1.67609 3.49402
thorax -2.13734 0.845576 3.05286
lowerneck -21.6857 3.74617 5.43661
upperneck 27.9837 5.91526 -7.5883
head 13.482 2.13543 -2.85411
rclavicle -8.54774e-015 -4.29375e-014
rhumerus -36.5103 -9.87275 -70.4645
rradius 28.4633
rwrist -4.98419
rhand -13.5965 -2.82863
rfingers 7.12502
rthumb 12.5182 -32.4337
lclavicle -8.54774e-015 -4.29375e-014
lhumerus -34.6773 5.7223 78.912
lradius 39.2576
lwrist 11.9334
lhand -12.9596 -2.93968
lfingers 7.12502
lthumb 13.1321 26.6268
rfemur -7.92176 -5.89541 27.7728
rtibia 29.771
rfoot -18.9935 -23.1659
rtoes 0.157391
lfemur -18.5446 -1.08767 -11.1915
ltibia 47.661
lfoot -11.7715 12.9461
ltoes -15.1266
140
root -0.602764 17.7023 -28.8362 3.63539 2.39332 -4.03289
lowerback 4.38358 1.30083 0.978374
upperback 0.400814 1.86221 3.54108
thorax -2.13321 0.936619 2.98186
lowerneck -21.802 3.7805 5.23733
upperneck 27.7903 5.98626 -7.47976
head 13.4201 2.1597 -2.75748
rclavicle 7.7526e-015 3.57812e-014
rhumerus -36.1207 -9.41359 -70.6641
rradius 28.5063
rwrist -5.0422
rhand -13.6915 -2.83948
rfingers 7.12502
rthumb 12.4266 -32.4501
lclavicle 7.7526e-015 3.57812e-014
lhumerus -34.5964 6.02506 78.7995
lradius 39.34
lwrist 11.948
lhand -13.004 -3.02452
lfingers 7.12502
lthumb 13.0894 26.5447
rfemur -7.70132 -6.00562 28.0321
rtibia 29.5827
rfoot -18.9787 -23.3894
rtoes 0.201707
lfemur -19.3733 -1.5272 -10.8709
ltibia 48.985
lfoot -11.3411 12.4174
ltoes -15.6718
141
root -0.618609 17.6968 -28.8137 3.56472 2.67251 -4.21008
lowerback 4.49909 1.43406 1.19243
upperback 0.483938 2.05256 3.59917
thorax -2.11574 1.02965 2.90774
lowerneck -21.9141 3.8436 5.05597
upperneck 27.5795 6.09045 -7.36798
head 13.3532 2.20149 -2.65655
rclavicle -1.42131e-014 -2.06736e-014
rhumerus -35.7182 -8.93498 -70.8662
rradius 28.5725
rwrist -5.1384
rhand -13.7765 -2.79532
rfingers 7.12502
rthumb 12.3446 -32.4109
lclavicle -1.42131e-014 -2.06736e-014
lhumerus -34.5177 6.35095 78.6897
lradius 39.4077
lwrist 11.9718
lhand -13.0932 -3.07445
lfingers 7.12502
lthumb 13.0034 26.5003
rfemur -7.4603 -6.12063 28.3133
rtibia 29.3739
rfoot -18.9545 -23.6103
rtoes 0.237369
lfemur -20.206 -1.97096 -10.5267
ltibia 50.267
lfoot -11.0386 11.8786
ltoes -16.2706
142
root -0.633806 17.6912 -28.7899 3.48304 2.96062 -4.40662
lowerback 4.61491 1.57439 1.42629
upperback 0.566949 2.25394 3.66561
thorax -2.09753 1.1282 2.83018
lowerneck -22 3.90189 4.88292
upperneck 27.382 6.19136 -7.27001
head 13.2868 2.2417 -2.56411
rclavicle -1.8487e-014 -2.46493e-014
rhumerus -35.3233 -8.43643 -71.0689
rradius 28.6743
rwrist -5.27409
rhand -13.8502 -2.73073
rfingers 7.12502
rthumb 12.2736 -32.3506
lclavicle -1.8487e-014 -2.46493e-014
lhumerus -34.4506 6.69362 78.5792
lradius 39.4682
lwrist 12.014
lhand -13.1759 -3.12438
lfingers 7.12502
lthumb 12.9237 26.4554
rfemur -7.19452 -6.23405 28.6118
rtibia 29.1415
rfoot -18.9129 -23.8281
rtoes 0.263007
lfemur -21.0354 -2.40703 -10.1657
ltibia 51.4897
lfoot -10.9188 11.3137
ltoes -16.8198
143
root -0.648013 17.6857 -28.7643 3.39546 3.26885 -4.6157
lowerback 4.72647 1.72971 1.69017
upperback 0.627657 2.4777 3.71926
thorax -2.09769 1.23779 2.72061
lowerneck -22.0524 3.95926 4.73372
upperneck 27.2313 6.27354 -7.13013
head 13.2301 2.28259 -2.46428
rclavicle -3.598e-014 -3.10104e-014
rhumerus -34.9898 -7.96966 -71.2701
rradius 28.8125
rwrist -5.4407
rhand -13.9271 -2.71749
rfingers 7.12502
rthumb 12.1994 -32.3417
lclavicle -3.598e-014 -3.10104e-014
lhumerus -34.4407 6.97936 78.4528
lradius 39.5408
lwrist 12.062
lhand -13.2578 -3.13733
lfingers 7.12502
lthumb 12.8447 26.4475
rfemur -6.90999 -6.3612 28.9191
rtibia 28.8866
rfoot -18.8627 -24.0405
rtoes 0.278204
lfemur -21.8572 -2.84786 -9.80031
ltibia 52.633
lfoot -11.0159 10.708
ltoes -17.313
